<?xml version="1.0" encoding="utf-8"?>
<!-- Generator: Adobe Illustrator 16.0.3, SVG Export Plug-In . SVG Version: 6.00 Build 0)  -->
<!DOCTYPE svg PUBLIC "-//W3C//DTD SVG 1.1//EN" "http://www.w3.org/Graphics/SVG/1.1/DTD/svg11.dtd">
<svg version="1.1" id="Layer_1" xmlns="http://www.w3.org/2000/svg" xmlns:xlink="http://www.w3.org/1999/xlink" x="0px" y="0px"
	 width="40px" height="56px" viewBox="0 0 40 56" style="enable-background:new 0 0 40 56;" xml:space="preserve">
<style type="text/css">
<![CDATA[
	.st0{fill:none;stroke:#662D91;stroke-width:4.5;stroke-miterlimit:10;}
	.st1{fill:none;stroke:#662D91;stroke-width:4;stroke-miterlimit:10;}
	.st2{fill:#662D91;}
]]>
</style>
<g>
	<line class="st1" x1="15.1" y1="35" x2="15.1" y2="55.1"/>
	<line class="st1" x1="7.3" y1="46.4" x2="22.8" y2="46.4"/>
	<g>
		<path class="st2" d="M15.1,14.9c5.3,0,9.7,4.3,9.7,9.7s-4.3,9.7-9.7,9.7s-9.7-4.3-9.7-9.7S9.7,14.9,15.1,14.9 M15.1,10.9
			C7.5,10.9,1.4,17,1.4,24.6s6.1,13.7,13.7,13.7c7.6,0,13.7-6.1,13.7-13.7S22.6,10.9,15.1,10.9L15.1,10.9z"/>
	</g>
	<line class="st0" x1="22.4" y1="3.7" x2="38" y2="3.7"/>
	<line class="st0" x1="36" y1="16.8" x2="36" y2="1.4"/>
	<line class="st0" x1="23.2" y1="16.8" x2="35.8" y2="4.1"/>
</g>
</svg>
