<?xml version="1.0" encoding="utf-8"?>
<!-- Generator: Adobe Illustrator 16.0.3, SVG Export Plug-In . SVG Version: 6.00 Build 0)  -->
<!DOCTYPE svg PUBLIC "-//W3C//DTD SVG 1.1//EN" "http://www.w3.org/Graphics/SVG/1.1/DTD/svg11.dtd">
<svg version="1.1" id="Layer_1" xmlns="http://www.w3.org/2000/svg" xmlns:xlink="http://www.w3.org/1999/xlink" x="0px" y="0px"
	 width="64px" height="27px" viewBox="0 0 64 27" style="enable-background:new 0 0 64 27;" xml:space="preserve">
<style type="text/css">
<![CDATA[
	.st0{fill:#336EA2;}
]]>
</style>
<g>
	<circle class="st0" cx="33" cy="13.6" r="6.8"/>
</g>
<g>
	<path class="st0" d="M51.4,8.8c2.6,0,4.8,2.2,4.8,4.8c0,2.6-2.2,4.8-4.8,4.8c-2.6,0-4.8-2.2-4.8-4.8C46.6,11,48.8,8.8,51.4,8.8
		 M51.4,6.8c-3.8,0-6.8,3-6.8,6.8c0,3.8,3,6.8,6.8,6.8c3.8,0,6.8-3,6.8-6.8C58.2,9.8,55.2,6.8,51.4,6.8L51.4,6.8z"/>
</g>
<circle class="st0" cx="14.6" cy="13.6" r="6.8"/>
</svg>
